<svg width="24" height="24" viewBox="0 0 24 24" fill="none" xmlns="http://www.w3.org/2000/svg">
<g clip-path="url(#clip0_552_223)">
<path d="M9.99874 3.19949C8.43445 3.56213 6.99566 4.33669 5.83162 5.44283C4.66758 6.54897 3.82068 7.9464 3.37877 9.49017C2.93686 11.0339 2.91602 12.6678 3.31843 14.2224C3.72084 15.7769 4.53183 17.1955 5.66729 18.3309C6.80275 19.4664 8.22132 20.2774 9.77586 20.6798C11.3304 21.0822 12.9643 21.0614 14.5081 20.6195C16.0518 20.1776 17.4493 19.3307 18.5554 18.1666C19.6615 17.0026 20.4361 15.5638 20.7987 13.9995C20.7987 13.7343 20.6934 13.4799 20.5058 13.2924C20.3183 13.1049 20.064 12.9995 19.7987 12.9995H12.9987C12.4683 12.9995 11.9596 12.7888 11.5845 12.4137C11.2095 12.0386 10.9987 11.5299 10.9987 10.9995V3.99949C10.9863 3.88102 10.9505 3.76619 10.8934 3.66166C10.8362 3.55714 10.7589 3.46499 10.6659 3.39058C10.5729 3.31616 10.466 3.26095 10.3515 3.22815C10.2369 3.19535 10.1171 3.18561 9.99874 3.19949Z" stroke="#00B8D0" stroke-width="2" stroke-linecap="round" stroke-linejoin="round"/>
<path d="M15 3.5C16.2697 3.94708 17.423 4.6733 18.3748 5.62516C19.3267 6.57702 20.0529 7.73028 20.5 9H16C15.7348 9 15.4804 8.89464 15.2929 8.70711C15.1054 8.51957 15 8.26522 15 8V3.5Z" stroke="#00B8D0" stroke-width="2" stroke-linecap="round" stroke-linejoin="round"/>
</g>
<defs>
<clipPath id="clip0_552_223">
<rect width="24" height="24" fill="white"/>
</clipPath>
</defs>
</svg>
