<svg width="35" height="35" viewBox="0 0 35 35" fill="none" xmlns="http://www.w3.org/2000/svg">
<g clip-path="url(#clip0_694_3595)">
<path d="M14.584 17.5007C14.584 18.2742 14.8913 19.0161 15.4383 19.563C15.9852 20.11 16.7271 20.4173 17.5007 20.4173C18.2742 20.4173 19.0161 20.11 19.563 19.563C20.11 19.0161 20.4173 18.2742 20.4173 17.5007C20.4173 16.7271 20.11 15.9852 19.563 15.4383C19.0161 14.8913 18.2742 14.584 17.5007 14.584C16.7271 14.584 15.9852 14.8913 15.4383 15.4383C14.8913 15.9852 14.584 16.7271 14.584 17.5007Z" stroke="#00B8D0" stroke-linecap="round" stroke-linejoin="round"/>
<path d="M30.625 17.5C27.125 23.3333 22.75 26.25 17.5 26.25C12.25 26.25 7.875 23.3333 4.375 17.5C7.875 11.6667 12.25 8.75 17.5 8.75C22.75 8.75 27.125 11.6667 30.625 17.5Z" stroke="#00B8D0" stroke-linecap="round" stroke-linejoin="round"/>
</g>
<defs>
<clipPath id="clip0_694_3595">
<rect width="35" height="35" fill="white"/>
</clipPath>
</defs>
</svg>
